<?xml version="1.0" encoding="UTF-8"?>
<svg width="16px" height="20px" viewBox="0 0 16 20" version="1.1" xmlns="http://www.w3.org/2000/svg" xmlns:xlink="http://www.w3.org/1999/xlink">
    <title>ICON/黑牌/1</title>
    <g id="ICON/黑牌/1" stroke="none" stroke-width="1" fill="none" fill-rule="evenodd">
        <g id="jiangbei--4" fill-rule="nonzero">
            <polygon id="路径" fill="#FF4C4C" points="16 0 13.3333333 0 9.77777777 4.44444444 12.4444444 4.44444444"></polygon>
            <polygon id="路径" fill="#3B8CFF" points="13.3333333 0 10.6666667 0 7.1111111 4.44444444 9.77777777 4.44444444"></polygon>
            <polygon id="路径" fill="#F1F1F1" points="10.6666667 0 8 0 4.44444444 4.44444444 7.1111111 4.44444444"></polygon>
            <polygon id="路径" fill="#FF4C4C" points="0 0 2.66666667 0 6.22222223 4.44444444 3.55555556 4.44444444"></polygon>
            <polygon id="路径" fill="#3B8CFF" points="2.66666667 0 5.33333333 0 8.8888889 4.44444444 6.22222223 4.44444444"></polygon>
            <polygon id="路径" fill="#FBFBFB" points="5.33333333 0 8 0 11.5555556 4.44444444 8.8888889 4.44444444"></polygon>
            <polygon id="路径" fill="#000000" points="3.55555556 4.44444444 12.4444444 4.44444444 12.4444444 8.88888888 3.55555556 8.88888888"></polygon>
            <path d="M1.33333333,12.8888889 C1.33333333,16.5707872 4.31810167,19.5555555 8,19.5555555 C11.6818983,19.5555555 14.6666667,16.5707872 14.6666667,12.8888889 C14.6666667,9.20699054 11.6818983,6.22222221 8,6.22222221 C4.31810167,6.22222221 1.33333333,9.20699054 1.33333333,12.8888889 Z" id="路径" fill="#666666"></path>
            <path d="M2.66666667,12.8888889 C2.66666667,15.8344075 5.05448133,18.2222222 8,18.2222222 C10.9455187,18.2222222 13.3333333,15.8344075 13.3333333,12.8888889 C13.3333333,9.94337021 10.9455187,7.55555554 8,7.55555554 C5.05448133,7.55555554 2.66666667,9.94337021 2.66666667,12.8888889 Z" id="路径" fill="#000000"></path>
            <path d="M3.55555556,12.8888889 C3.55555556,15.3434878 5.54540112,17.3333333 8,17.3333333 C10.4545989,17.3333333 12.4444444,15.3434878 12.4444444,12.8888889 C12.4444444,11.3010418 11.5973381,9.83381058 10.2222222,9.03988703 C8.84710633,8.24596348 7.15289367,8.24596348 5.77777776,9.03988703 C4.40266186,9.83381058 3.55555556,11.3010418 3.55555556,12.8888889 Z" id="路径" fill="#666666"></path>
            <path d="M3.1111111,4.44444444 L12.8888889,4.44444444 C13.1343488,4.44444444 13.3333333,4.64342899 13.3333333,4.88888889 C13.3333333,5.13434878 13.1343488,5.33333333 12.8888889,5.33333333 L3.1111111,5.33333333 C2.86565121,5.33333333 2.66666666,5.13434878 2.66666666,4.88888889 C2.66666666,4.64342899 2.86565121,4.44444444 3.1111111,4.44444444 L3.1111111,4.44444444 Z" id="路径" fill="#000000"></path>
            <path d="M3.1111111,4.62222221 C2.96383517,4.62222221 2.84444444,4.74161294 2.84444444,4.88888888 C2.84444444,5.03616481 2.96383517,5.15555554 3.1111111,5.15555554 L12.8888889,5.15555554 C13.0361648,5.15555554 13.1555556,5.03616481 13.1555556,4.88888888 C13.1555556,4.74161294 13.0361648,4.62222221 12.8888889,4.62222221 L3.1111111,4.62222221 Z M3.1111111,4.26666666 L12.8888889,4.26666666 C13.1112146,4.26662599 13.3166694,4.38521197 13.427844,4.5777449 C13.5390186,4.77027784 13.5390186,5.00749993 13.427844,5.20003287 C13.3166694,5.3925658 13.1112146,5.51115179 12.8888889,5.51111111 L3.1111111,5.51111111 C2.8887854,5.51115179 2.68333057,5.3925658 2.57215597,5.20003287 C2.46098137,5.00749993 2.46098137,4.77027784 2.57215597,4.5777449 C2.68333057,4.38521197 2.8887854,4.26662599 3.1111111,4.26666666 L3.1111111,4.26666666 Z" id="形状" fill="#666666"></path>
            <path d="M8.58275862,15.2 L7.57586207,15.2 L7.57586207,11.7517241 L6.4,11.7517241 L6.4,11.0827586 C6.71034483,11.0689655 6.92758621,11.0482759 7.05172414,11.0206897 C7.24942529,10.9770115 7.41034483,10.8896552 7.53448276,10.7586207 C7.61954023,10.6689655 7.68390805,10.5494253 7.72758621,10.4 C7.75287356,10.3103448 7.76551724,10.2436782 7.76551724,10.2 L8.58275862,10.2 L8.58275862,15.2 Z" id="路径" fill="#000000"></path>
        </g>
    </g>
</svg>