<?xml version="1.0" encoding="UTF-8"?>
<svg width="16px" height="20px" viewBox="0 0 16 20" version="1.1" xmlns="http://www.w3.org/2000/svg" xmlns:xlink="http://www.w3.org/1999/xlink">
    <title>ICON/黑牌/2</title>
    <g id="ICON/黑牌/2" stroke="none" stroke-width="1" fill="none" fill-rule="evenodd">
        <g id="jiangbei--4" fill-rule="nonzero">
            <polygon id="路径" fill="#FF4C4C" points="16 0 13.3333333 0 9.77777777 4.44444444 12.4444444 4.44444444"></polygon>
            <polygon id="路径" fill="#3B8CFF" points="13.3333333 0 10.6666667 0 7.1111111 4.44444444 9.77777777 4.44444444"></polygon>
            <polygon id="路径" fill="#F1F1F1" points="10.6666667 0 8 0 4.44444444 4.44444444 7.1111111 4.44444444"></polygon>
            <polygon id="路径" fill="#FF4C4C" points="0 0 2.66666667 0 6.22222223 4.44444444 3.55555556 4.44444444"></polygon>
            <polygon id="路径" fill="#3B8CFF" points="2.66666667 0 5.33333333 0 8.8888889 4.44444444 6.22222223 4.44444444"></polygon>
            <polygon id="路径" fill="#FBFBFB" points="5.33333333 0 8 0 11.5555556 4.44444444 8.8888889 4.44444444"></polygon>
            <polygon id="路径" fill="#333333" points="3.55555556 4.44444444 12.4444444 4.44444444 12.4444444 8.88888888 3.55555556 8.88888888"></polygon>
            <path d="M1.33333333,12.8888889 C1.33333333,16.5707872 4.31810167,19.5555555 8,19.5555555 C11.6818983,19.5555555 14.6666667,16.5707872 14.6666667,12.8888889 C14.6666667,9.20699054 11.6818983,6.22222221 8,6.22222221 C4.31810167,6.22222221 1.33333333,9.20699054 1.33333333,12.8888889 Z" id="路径" fill="#999999"></path>
            <path d="M2.66666667,12.8888889 C2.66666667,15.8344075 5.05448133,18.2222222 8,18.2222222 C10.9455187,18.2222222 13.3333333,15.8344075 13.3333333,12.8888889 C13.3333333,9.94337021 10.9455187,7.55555554 8,7.55555554 C5.05448133,7.55555554 2.66666667,9.94337021 2.66666667,12.8888889 Z" id="路径" fill="#333333"></path>
            <path d="M3.55555556,12.8888889 C3.55555556,15.3434878 5.54540112,17.3333333 8,17.3333333 C10.4545989,17.3333333 12.4444444,15.3434878 12.4444444,12.8888889 C12.4444444,11.3010418 11.5973381,9.83381058 10.2222222,9.03988703 C8.84710633,8.24596348 7.15289367,8.24596348 5.77777776,9.03988703 C4.40266186,9.83381058 3.55555556,11.3010418 3.55555556,12.8888889 Z" id="路径" fill="#999999"></path>
            <path d="M3.1111111,4.44444444 L12.8888889,4.44444444 C13.1343488,4.44444444 13.3333333,4.64342899 13.3333333,4.88888889 C13.3333333,5.13434878 13.1343488,5.33333333 12.8888889,5.33333333 L3.1111111,5.33333333 C2.86565121,5.33333333 2.66666666,5.13434878 2.66666666,4.88888889 C2.66666666,4.64342899 2.86565121,4.44444444 3.1111111,4.44444444 L3.1111111,4.44444444 Z" id="路径" fill="#333333"></path>
            <path d="M3.1111111,4.62222221 C2.96383517,4.62222221 2.84444444,4.74161294 2.84444444,4.88888888 C2.84444444,5.03616481 2.96383517,5.15555554 3.1111111,5.15555554 L12.8888889,5.15555554 C13.0361648,5.15555554 13.1555556,5.03616481 13.1555556,4.88888888 C13.1555556,4.74161294 13.0361648,4.62222221 12.8888889,4.62222221 L3.1111111,4.62222221 Z M3.1111111,4.26666666 L12.8888889,4.26666666 C13.1112146,4.26662599 13.3166694,4.38521197 13.427844,4.5777449 C13.5390186,4.77027784 13.5390186,5.00749993 13.427844,5.20003287 C13.3166694,5.3925658 13.1112146,5.51115179 12.8888889,5.51111111 L3.1111111,5.51111111 C2.8887854,5.51115179 2.68333057,5.3925658 2.57215597,5.20003287 C2.46098137,5.00749993 2.46098137,4.77027784 2.57215597,4.5777449 C2.68333057,4.38521197 2.8887854,4.26662599 3.1111111,4.26666666 L3.1111111,4.26666666 Z" id="形状" fill="#999999"></path>
            <path d="M8.42374743,11.2363761 C8.30706932,11.0968199 8.14005948,11.0270419 7.92271791,11.0270419 C7.62530313,11.0270419 7.4228323,11.1380005 7.31530542,11.3599176 C7.25353466,11.4880348 7.21692976,11.6916495 7.20549073,11.9707618 L6.25490734,11.9707618 C6.27092199,11.5475177 6.34756349,11.2054907 6.48483185,10.9446809 C6.74564173,10.448227 7.20892244,10.2 7.87467399,10.2 C8.40086937,10.2 8.81953786,10.3458476 9.13067948,10.6375429 C9.44182109,10.9292382 9.5973919,11.3153054 9.5973919,11.7957447 C9.5973919,12.1640814 9.48757721,12.4912377 9.26794784,12.7772135 C9.12381606,12.9671013 8.88702814,13.1787234 8.55758408,13.4120796 L8.16636925,13.690048 C7.92157401,13.8639213 7.75399222,13.9897506 7.66362388,14.067536 C7.57325555,14.1453214 7.497186,14.2356898 7.43541524,14.338641 L9.60768703,14.338641 L9.60768703,15.2 L6.2,15.2 C6.20915122,14.8431023 6.28579272,14.5170899 6.4299245,14.2219629 C6.56948067,13.8902311 6.89892473,13.5390528 7.41825669,13.1684283 C7.86895447,12.8458476 8.16064974,12.6147792 8.29334248,12.4752231 C8.49695722,12.2578815 8.59876458,12.0199497 8.59876458,11.7614276 C8.59876458,11.5509494 8.54042553,11.3759323 8.42374743,11.2363761 Z" id="路径" fill="#333333"></path>
        </g>
    </g>
</svg>