<?xml version="1.0" encoding="UTF-8"?>
<svg width="16px" height="20px" viewBox="0 0 16 20" version="1.1" xmlns="http://www.w3.org/2000/svg" xmlns:xlink="http://www.w3.org/1999/xlink">
    <title>ICON/奖牌/铜牌</title>
    <g id="ICON/奖牌/铜牌" stroke="none" stroke-width="1" fill="none" fill-rule="evenodd">
        <g id="jiangbei--4" fill-rule="nonzero">
            <polygon id="路径" fill="#FF4C4C" points="16 0 13.3333333 0 9.77777777 4.44444444 12.4444444 4.44444444"></polygon>
            <polygon id="路径" fill="#3B8CFF" points="13.3333333 0 10.6666667 0 7.1111111 4.44444444 9.77777777 4.44444444"></polygon>
            <polygon id="路径" fill="#F1F1F1" points="10.6666667 0 8 0 4.44444444 4.44444444 7.1111111 4.44444444"></polygon>
            <polygon id="路径" fill="#FF4C4C" points="0 0 2.66666667 0 6.22222223 4.44444444 3.55555556 4.44444444"></polygon>
            <polygon id="路径" fill="#3B8CFF" points="2.66666667 0 5.33333333 0 8.8888889 4.44444444 6.22222223 4.44444444"></polygon>
            <polygon id="路径" fill="#FBFBFB" points="5.33333333 0 8 0 11.5555556 4.44444444 8.8888889 4.44444444"></polygon>
            <polygon id="路径" fill="#AF8A77" points="3.55555556 4.44444444 12.4444444 4.44444444 12.4444444 8.88888887 3.55555556 8.88888887"></polygon>
            <path d="M1.33333333,12.8888889 C1.33333333,16.5707872 4.31810167,19.5555555 8,19.5555555 C11.6818983,19.5555555 14.6666667,16.5707872 14.6666667,12.8888889 C14.6666667,9.20699054 11.6818983,6.22222221 8,6.22222221 C4.31810167,6.22222221 1.33333333,9.20699054 1.33333333,12.8888889 Z" id="路径" fill="#CEB1A1"></path>
            <path d="M2.66666667,12.8888889 C2.66666667,15.8344075 5.05448133,18.2222222 8,18.2222222 C10.9455187,18.2222222 13.3333333,15.8344075 13.3333333,12.8888889 C13.3333333,9.94337021 10.9455187,7.55555554 8,7.55555554 C5.05448133,7.55555554 2.66666667,9.94337021 2.66666667,12.8888889 Z" id="路径" fill="#AF8A77"></path>
            <path d="M3.55555556,12.8888889 C3.55555556,15.3434878 5.54540112,17.3333333 8,17.3333333 C10.4545989,17.3333333 12.4444444,15.3434878 12.4444444,12.8888889 C12.4444444,11.3010418 11.5973381,9.83381058 10.2222222,9.03988703 C8.84710633,8.24596348 7.15289367,8.24596348 5.77777776,9.03988703 C4.40266186,9.83381058 3.55555556,11.3010418 3.55555556,12.8888889 Z" id="路径" fill="#CEB1A1"></path>
            <path d="M12.8888889,4.44444444 C13.1343488,4.44444444 13.3333333,4.64342899 13.3333333,4.88888889 C13.3333333,5.13434878 13.1343488,5.33333333 12.8888889,5.33333333 L3.1111111,5.33333333 C2.86565121,5.33333333 2.66666666,5.13434878 2.66666666,4.88888889 C2.66666666,4.64342899 2.86565121,4.44444444 3.1111111,4.44444444 L12.8888889,4.44444444 Z" id="路径" fill="#AF8A77"></path>
            <path d="M3.1111111,4.62222221 C2.96383517,4.62222221 2.84444444,4.74161294 2.84444444,4.88888888 C2.84444444,5.03616481 2.96383517,5.15555554 3.1111111,5.15555554 L12.8888889,5.15555554 C13.0361648,5.15555554 13.1555556,5.03616481 13.1555556,4.88888888 C13.1555556,4.74161294 13.0361648,4.62222221 12.8888889,4.62222221 L3.1111111,4.62222221 Z M12.8888889,4.26666665 C13.1112146,4.26662599 13.3166694,4.38521197 13.427844,4.5777449 C13.5390186,4.77027784 13.5390186,5.00749993 13.427844,5.20003287 C13.3166694,5.3925658 13.1112146,5.51115179 12.8888889,5.51111113 L3.1111111,5.51111113 C2.8887854,5.51115179 2.68333057,5.3925658 2.57215597,5.20003287 C2.46098137,5.00749993 2.46098137,4.77027784 2.57215597,4.5777449 C2.68333057,4.38521197 2.8887854,4.26662599 3.1111111,4.26666665 L12.8888889,4.26666665 Z" id="形状" fill="#CEB1A1"></path>
            <path d="M7.3319491,11.1912927 C7.22478232,11.3341817 7.17343157,11.5250726 7.17789685,11.7639652 L6.28707301,11.7639652 C6.29600357,11.5228399 6.33730743,11.2939942 6.41098459,11.077428 C6.48912704,10.8876535 6.6119223,10.7123912 6.7793704,10.551641 C6.9043983,10.4377763 7.05286894,10.3507033 7.22478232,10.290422 C7.39669569,10.2301407 7.60768029,10.2 7.8577361,10.2 C8.32212547,10.2 8.69665104,10.3200045 8.98131279,10.5600134 C9.26597455,10.8000223 9.40830543,11.1220808 9.40830543,11.5261889 C9.40830543,11.811967 9.32346506,12.0530922 9.15378433,12.2495646 C9.04661755,12.3723599 8.93498549,12.4560839 8.81888814,12.5007368 C8.90596115,12.5007368 9.03098906,12.5755303 9.19397187,12.7251172 C9.43732976,12.950614 9.55900871,13.2587185 9.55900871,13.6494307 C9.55900871,14.0602367 9.41667783,14.4213664 9.13201608,14.7328198 C8.84735432,15.0442733 8.42594329,15.2 7.86778299,15.2 C7.18012949,15.2 6.70234427,14.9756196 6.43442733,14.5268587 C6.29377093,14.2879661 6.21562849,13.9753963 6.2,13.5891494 L7.13770931,13.5891494 C7.13770931,13.7833891 7.16896629,13.9441393 7.23148024,14.0713999 C7.34757758,14.3058272 7.55856218,14.4230409 7.86443403,14.4230409 C8.05197589,14.4230409 8.21551686,14.3588524 8.35505693,14.2304756 C8.49459701,14.1020987 8.56436705,13.9173476 8.56436705,13.6762224 C8.56436705,13.3569547 8.43487386,13.1437374 8.17588747,13.0365707 C8.02853315,12.9762894 7.79633847,12.9461487 7.47930342,12.9461487 L7.47930342,12.2629605 C7.78964054,12.2584952 8.00620674,12.2283545 8.12900201,12.1725385 C8.34110292,12.0787676 8.44715338,11.8889931 8.44715338,11.603215 C8.44715338,11.4179058 8.39301183,11.2672025 8.28472873,11.1511052 C8.17644564,11.0350078 8.02406787,10.9769591 7.82759545,10.9769591 C7.60209868,10.9769591 7.43688323,11.0484037 7.3319491,11.1912927 Z" id="路径" fill="#AF8A77"></path>
        </g>
    </g>
</svg>