<?xml version="1.0" encoding="UTF-8"?>
<svg width="28px" height="28px" viewBox="0 0 28 28" version="1.1" xmlns="http://www.w3.org/2000/svg" xmlns:xlink="http://www.w3.org/1999/xlink">
    <title>ICON/智感检测</title>
    <g id="ICON/智感检测" stroke="none" stroke-width="1" fill="none" fill-rule="evenodd">
        <path d="M27.9645259,27.96473 L25.9585836,27.9643476 C25.4774383,22.1349248 20.8295856,17.487072 15.0001628,17.0059268 L15,15 C21.9348037,15.489574 27.4750585,21.0298968 27.9645259,27.96473 Z" id="形状结合" fill="#72A3F2" transform="translate(21.482263, 21.482365) scale(1, -1) translate(-21.482263, -21.482365) "></path>
        <path d="M27.9645259,12.96473 L25.9585836,12.9643476 C25.4774383,7.13492479 20.8295856,2.48707204 15.0001628,2.00592679 L15,3.694961e-15 C21.9348037,0.489573994 27.4750585,6.02989681 27.9645259,12.96473 Z" id="形状结合" fill="#297AFF"></path>
        <path d="M12.9645259,12.96473 L10.9585836,12.9643476 C10.4774383,7.13492479 5.82958559,2.48707204 0.000162779425,2.00592679 L-1.07741593e-12,3.694961e-15 C6.93480374,0.489573994 12.4750585,6.02989681 12.9645259,12.96473 Z" id="形状结合" fill="#72A3F2" transform="translate(6.482263, 6.482365) scale(-1, 1) translate(-6.482263, -6.482365) "></path>
        <path d="M12.9645259,27.96473 L10.9585836,27.9643476 C10.4774383,22.1349248 5.82958559,17.487072 0.000162779425,17.0059268 L-1.07741593e-12,15 C6.93480374,15.489574 12.4750585,21.0298968 12.9645259,27.96473 Z" id="形状结合" fill="#297AFF" transform="translate(6.482263, 21.482365) scale(-1, -1) translate(-6.482263, -21.482365) "></path>
        <circle id="椭圆形" fill="#72A3F2" cx="14" cy="14" r="8"></circle>
        <path d="M14,14 L14,22 C9.66508574,22 6.13545713,18.5521622 6.00380682,14.2491793 L6,14 L14,14 Z M14,6 C18.3349143,6 21.8645429,9.44783777 21.9961932,13.7508207 L22,14 L14,14 L14,6 Z" id="形状结合" fill="#297AFF"></path>
    </g>
</svg>