<?xml version="1.0" encoding="UTF-8"?>
<svg width="16px" height="16px" viewBox="0 0 16 16" version="1.1" xmlns="http://www.w3.org/2000/svg" xmlns:xlink="http://www.w3.org/1999/xlink">
    <title>ICON/占比</title>
    <g id="ICON/占比" stroke="none" stroke-width="1" fill="none" fill-rule="evenodd">
        <rect id="矩形" fill="#E9F4FF" x="0" y="0" width="16" height="16" rx="1"></rect>
        <path d="M7.8510057,2.20164447 L7.8510057,7.93092522 L2.76359401,10.6792777 C2.41741779,9.8844227 2.19860389,8.97274878 2.2,8.04954804 C2.2,6.45934742 2.83460233,5.01712723 3.86428646,3.96240412 C4.88351856,2.9183872 6.2898465,2.25399689 7.8510057,2.20164447 L7.8510057,2.20164447 Z" id="路径" stroke="#297AFF" stroke-width="0.4" fill="#FFFFFF" fill-rule="nonzero"></path>
        <path d="M12.8541881,8.7 C12.8375432,10.1131746 12.2907714,11.3563322 11.4108469,12.2629717 C10.4718848,13.2304411 9.15448036,13.8142283 7.70131676,13.8142283 C5.86054472,13.8142283 4.2379758,12.8781536 3.28429394,11.4557946 L3.28429394,11.4557946 L8.33203911,8.7 Z" id="形状结合" stroke="#297AFF" stroke-width="0.4" fill-opacity="0.5" fill="#A1C2FA" fill-rule="nonzero"></path>
        <path d="M14.7867426,7.62063386 L14.7954469,7.62063386 C14.7823904,4.36519362 12.1783283,1.7205111 8.93884611,1.64359699 C8.86050664,1.64217163 8.79667448,1.70310233 8.79522375,1.7814418 L8.79522375,1.80610423 C8.79522375,1.88299297 8.85615445,1.94392367 8.93304319,1.94682513 C12.0738757,2.01646022 14.6199085,4.50301306 14.7867426,7.62063386 Z" id="路径" fill="#FFFFFF" fill-rule="nonzero"></path>
        <path d="M8.7,2.03929036 C10.3183087,2.03936741 11.7519279,2.64928604 12.8386131,3.73325118 C13.9458527,4.83771917 14.5618136,6.30068348 14.5840074,7.86135476 L14.5840074,7.86135476 L8.7,7.86135476 Z" id="路径" stroke="#297AFF" stroke-width="0.4" fill="#72A3F2" fill-rule="nonzero"></path>
    </g>
</svg>