<?xml version="1.0" encoding="UTF-8"?>
<svg width="16px" height="16px" viewBox="0 0 16 16" version="1.1" xmlns="http://www.w3.org/2000/svg" xmlns:xlink="http://www.w3.org/1999/xlink">
    <title>ICON/进度排名</title>
    <g id="ICON/进度排名" stroke="none" stroke-width="1" fill="none" fill-rule="evenodd">
        <polygon id="路径" fill="#E9F4FF" fill-rule="nonzero" points="0 0 16 0 16 16 0 16"></polygon>
        <g id="编组" transform="translate(2.000000, 2.000000)" fill-rule="nonzero">
            <path d="M11.7857143,3.42857191 C11.889211,3.42857191 11.977942,3.50247995 11.9965714,3.60428621 L12,3.64285764 L12,10.9602862 C12,11.2778576 11.7578571,11.5388576 11.4475714,11.5688576 L11.3888571,11.5714294 L1.07142857,11.5714294 C0.960433252,11.5716334 0.867653849,11.4870469 0.857624883,11.3765054 C0.847595916,11.2659639 0.923637375,11.1660611 1.03285714,11.1462862 L1.07142857,11.1428576 L11.3888571,11.1428576 C11.4788571,11.1428576 11.553,11.0785719 11.5688571,10.9928576 L11.5714286,10.9602862 L11.5714286,3.64285764 C11.5714286,3.5245109 11.6673676,3.42857191 11.7857143,3.42857191 Z" id="路径" fill="#8EB6F9"></path>
            <path d="M0,7.14342906 L0,10.2857148 C0,10.5224082 0.191877964,10.7142862 0.428571429,10.7142862 L10.7142857,10.7142862 C10.9509792,10.7142862 11.1428572,10.5224082 11.1428572,10.2857148 L11.1428572,2.25557192 C11.1428572,2.16771347 11.0892972,2.08873386 11.0076382,2.056316 C10.9259792,2.02389813 10.8328052,2.04461096 10.7725714,2.10857192 L6.57257143,6.57985764 C6.53206739,6.62299402 6.47552914,6.64746184 6.41635714,6.64746184 C6.35718514,6.64746184 6.3006469,6.62299402 6.26014286,6.57985764 L4.88957143,5.12057192 C4.84905606,5.07729685 4.79242377,5.05273917 4.73314286,5.05273917 C4.67386194,5.05273917 4.61722966,5.07729685 4.57671429,5.12057192 L2.00871429,7.85485764 C1.9373008,7.93091335 1.82149127,7.94448478 1.73442857,7.88700049 L0.332142857,6.96471478 C0.266360204,6.92139335 0.182113628,6.91765324 0.112750835,6.95497489 C0.0433880406,6.99229655 0,7.06466299 0,7.14342906 Z" id="路径" fill="#297AFF"></path>
            <path d="M8.298,0.214285714 L11.2341429,0.214285714 C11.278033,0.21435537 11.3174424,0.241185774 11.3335962,0.281995169 C11.3497499,0.322804564 11.3393807,0.369339008 11.3074286,0.399429065 L7.01914286,4.42457192 C6.744,4.68257192 6.30385714,4.69885764 6.00771429,4.47171478 L5.952,4.42457192 L4.78842857,3.33257192 L2.39442857,5.57914335 C2.163,5.79600049 1.80857143,5.84657192 1.52014286,5.70985764 L1.46314286,5.67985764 L0.379714286,5.05157192 C0.300326472,5.00563402 0.243604759,4.92876514 0.223122942,4.83936038 C0.202641125,4.74995562 0.220242253,4.65606005 0.271714286,4.58014335 C0.383810289,4.41485277 0.604608101,4.36433124 0.777428571,4.46442906 L1.86085714,5.09314335 L4.26257143,2.83885764 C4.542,2.58471478 4.98214286,2.57400049 5.27442857,2.80542906 L5.32157143,2.84614335 L6.48557143,3.93857192 L9.16414286,1.42414335 C9.18580929,1.40375602 9.19802353,1.375278 9.19786097,1.34552819 C9.1976984,1.31577837 9.18517366,1.28743554 9.16328571,1.26728621 L8.22514286,0.400286208 C8.1926042,0.370357171 8.18178927,0.323515631 8.19791362,0.282351122 C8.21403797,0.241186613 8.25379035,0.214152542 8.298,0.214285714 Z" id="路径" fill="#8EB6F9"></path>
            <path d="M8.08328571,0 L11.0194286,0 C11.0633187,6.96560637e-05 11.1027282,0.0269000597 11.1188819,0.0677094549 C11.1350356,0.10851885 11.1246664,0.155053293 11.0927143,0.185143351 L6.80442857,4.21028621 C6.52928571,4.46828621 6.08914286,4.48457192 5.793,4.25742906 L5.73728571,4.21028621 L4.57371429,3.11828621 L2.17971429,5.36485764 C1.94828571,5.58171478 1.59385714,5.63228621 1.30542857,5.49557192 L1.24842857,5.46557192 L0.165,4.83728621 C0.0856121864,4.79134831 0.0288904735,4.71447942 0.00840865633,4.62507467 C-0.0120731608,4.53566991 0.00552796696,4.44177434 0.057,4.36585764 C0.169096003,4.20056705 0.389893815,4.15004552 0.562714286,4.25014335 L1.64614286,4.87885764 L4.04785714,2.62457192 C4.32728571,2.37042906 4.76742857,2.35971478 5.05971429,2.59114335 L5.10685714,2.63185764 L6.27085714,3.72428621 L8.94942857,1.20985764 C8.971095,1.1894703 8.98330925,1.16099228 8.98314668,1.13124247 C8.98298411,1.10149266 8.97045937,1.07314983 8.94857143,1.05300049 L8.01042857,0.186000493 C7.97788992,0.156071457 7.96707499,0.109229916 7.98319933,0.0680654073 C7.99932368,0.0269008983 8.03907606,-0.000133172122 8.08328571,0 Z" id="路径" fill="#297AFF"></path>
        </g>
    </g>
</svg>