<?xml version="1.0" encoding="UTF-8"?>
<svg width="16px" height="16px" viewBox="0 0 16 16" version="1.1" xmlns="http://www.w3.org/2000/svg" xmlns:xlink="http://www.w3.org/1999/xlink">
    <title>ICON/排名</title>
    <g id="ICON/排名" stroke="none" stroke-width="1" fill="none" fill-rule="evenodd">
        <rect id="矩形" fill="#E9F4FF" x="0" y="0" width="16" height="16" rx="1"></rect>
        <path d="M4.0443509,5.75298328 C5.30352514,4.00676784 7.18096611,3.57193949 9.06189027,4.67799097 C9.13852052,4.72457972 9.4920646,4.91611125 9.57217803,4.9627 C10.7407893,5.65117823 11.8258038,5.52003952 12.6373878,4.39500744 C13.1668331,3.65994046 14.4033666,4.36394827 13.8686965,5.10764279 C12.8341882,6.54326655 11.3816967,7.090253 9.85257506,6.62609099 C9.37421657,7.44283208 8.91675724,8.27165172 8.48019706,9.11254993 C9.12632934,9.4403967 9.88914859,10.0167168 10.2810078,10.3273085 C10.772138,10.7138226 11.3991127,12.2426238 11.7735559,13.00875 C12.1741231,13.8318179 10.8818586,14.4271187 10.4812914,13.6092272 C10.1521297,12.9328276 9.59481879,11.5903813 9.27262345,11.3263784 C8.9504281,11.0623755 7.88805427,10.318681 7.07821192,10.0391484 C7.04073544,10.025137 7.00410165,10.0090057 6.96849134,9.99083418 C5.97752296,11.2366519 4.03564292,11.8250506 2.3793847,10.8673929 C1.50684488,10.3618187 2.29578807,9.11600095 3.17181108,9.62330069 C4.38396221,10.325583 5.64487804,9.42659263 6.21786327,8.30156055 C6.79084851,7.17652847 7.19489888,6.38451969 7.65816354,5.58905989 C6.75427498,5.30262534 5.92701667,5.56317725 5.27565959,6.46561863 C4.74621427,7.2006856 3.50968079,6.49667779 4.0443509,5.75298328 Z M10.3152578,2.00000048 C11.0950968,2.0006359 11.7268518,2.62732714 11.7265318,3.39996302 C11.7262115,4.17259889 11.0939374,4.79877662 10.3140981,4.79877662 C9.53375033,4.79782448 8.9016634,4.17080335 8.9016634,3.39766305 C8.90262498,2.62502769 9.5354187,1.99936603 10.3152578,2.00000048 Z" id="形状结合" fill="#297AFF" fill-rule="nonzero"></path>
    </g>
</svg>